<svg xmlns="http://www.w3.org/2000/svg" fill="none" viewBox="0 0 80 80" height="80" width="80">
<rect fill-opacity="0.12" fill="#67E2E2" rx="16" height="80" width="80"></rect>
<g clip-path="url(#clip0_538_2471)">
<path fill="#90E0E0" d="M55 47H27V30C27 29.7348 27.1054 29.4804 27.2929 29.2929C27.4804 29.1054 27.7348 29 28 29H52C52.2652 29 52.5196 29.1054 52.7071 29.2929C52.8946 29.4804 53 29.7348 53 30V44C53 44.2652 53.1054 44.5196 53.2929 44.7071C53.4804 44.8946 53.7348 45 54 45C54.2652 45 54.5196 44.8946 54.7071 44.7071C54.8946 44.5196 55 44.2652 55 44V30C55 29.2044 54.6839 28.4413 54.1213 27.8787C53.5587 27.3161 52.7956 27 52 27H28C27.2044 27 26.4413 27.3161 25.8787 27.8787C25.3161 28.4413 25 29.2044 25 30V47C24.7348 47 24.4804 47.1054 24.2929 47.2929C24.1054 47.4804 24 47.7348 24 48V50C24 50.7956 24.3161 51.5587 24.8787 52.1213C25.4413 52.6839 26.2044 53 27 53H53C53.7956 53 54.5587 52.6839 55.1213 52.1213C55.6839 51.5587 56 50.7956 56 50V48C56 47.7348 55.8946 47.4804 55.7071 47.2929C55.5196 47.1054 55.2652 47 55 47ZM54 50C54 50.2652 53.8946 50.5196 53.7071 50.7071C53.5196 50.8946 53.2652 51 53 51H27C26.7348 51 26.4804 50.8946 26.2929 50.7071C26.1054 50.5196 26 50.2652 26 50V49H54V50Z"></path>
<path fill="#5FD7D7" d="M49 34H46C45.7348 34 45.4804 33.8946 45.2929 33.7071C45.1054 33.5196 45 33.2652 45 33C45 32.7348 45.1054 32.4804 45.2929 32.2929C45.4804 32.1054 45.7348 32 46 32H49C49.2652 32 49.5196 32.1054 49.7071 32.2929C49.8946 32.4804 50 32.7348 50 33C50 33.2652 49.8946 33.5196 49.7071 33.7071C49.5196 33.8946 49.2652 34 49 34Z"></path>
<path fill="#5FD7D7" d="M49 38H46C45.7348 38 45.4804 37.8946 45.2929 37.7071C45.1054 37.5196 45 37.2652 45 37C45 36.7348 45.1054 36.4804 45.2929 36.2929C45.4804 36.1054 45.7348 36 46 36H49C49.2652 36 49.5196 36.1054 49.7071 36.2929C49.8946 36.4804 50 36.7348 50 37C50 37.2652 49.8946 37.5196 49.7071 37.7071C49.5196 37.8946 49.2652 38 49 38Z"></path>
<path fill="#5FD7D7" d="M49 42H46C45.7348 42 45.4804 41.8946 45.2929 41.7071C45.1054 41.5196 45 41.2652 45 41C45 40.7348 45.1054 40.4804 45.2929 40.2929C45.4804 40.1054 45.7348 40 46 40H49C49.2652 40 49.5196 40.1054 49.7071 40.2929C49.8946 40.4804 50 40.7348 50 41C50 41.2652 49.8946 41.5196 49.7071 41.7071C49.5196 41.8946 49.2652 42 49 42Z"></path>
<path fill="#5FD7D7" d="M36.5 33C35.4277 33.0034 34.392 33.3928 33.5799 34.098C32.9575 34.638 32.5066 35.3416 32.3904 36.0477C31.0286 36.3505 30 37.545 30 38.9875C30 40.6631 31.3877 42 33.0721 42H40.3082C41.7829 42 43 40.83 43 39.3597C43 38.0212 41.9909 36.9305 40.6974 36.7465C40.4999 34.6355 38.6856 33 36.5 33ZM38.4126 36.9715L35.9751 39.426C35.9374 39.4641 35.8926 39.4943 35.8432 39.5149C35.7938 39.5356 35.7409 39.5462 35.6875 39.5462C35.6341 39.5462 35.5812 39.5356 35.5318 39.5149C35.4824 39.4943 35.4376 39.4641 35.3999 39.426L34.1811 38.1987C34.1434 38.1607 34.1134 38.1155 34.0929 38.0658C34.0725 38.0161 34.062 37.9629 34.062 37.9091C34.062 37.8553 34.0725 37.802 34.0929 37.7523C34.1134 37.7026 34.1434 37.6575 34.1811 37.6195C34.2189 37.5814 34.2637 37.5512 34.3131 37.5307C34.3624 37.5101 34.4153 37.4995 34.4688 37.4995C34.5222 37.4995 34.5751 37.5101 34.6244 37.5307C34.6738 37.5512 34.7186 37.5814 34.7564 37.6195L35.6875 38.5579L37.8374 36.3922C37.9137 36.3154 38.0171 36.2722 38.125 36.2722C38.2329 36.2722 38.3363 36.3154 38.4126 36.3922C38.4889 36.469 38.5318 36.5732 38.5318 36.6818C38.5318 36.7905 38.4889 36.8946 38.4126 36.9715V36.9715Z"></path>
</g>
<defs>
<clipPath id="clip0_538_2471">
<rect transform="translate(24 24)" fill="white" height="32" width="32"></rect>
</clipPath>
</defs>
</svg>
