<svg xmlns="http://www.w3.org/2000/svg" fill="none" viewBox="0 0 80 80" height="80" width="80">
<rect fill-opacity="0.12" fill="#EE5B5B" rx="16" height="80" width="80"></rect>
<g clip-path="url(#clip0_538_2450)">
<path fill="#EE5B5B" d="M41.28 24.07C39.3673 23.8393 37.4276 24.1183 35.6574 24.8787C33.8873 25.6391 32.3495 26.8539 31.2 28.4C31.0409 28.6121 30.9726 28.8788 31.0101 29.1414C31.0476 29.4039 31.1879 29.6408 31.4 29.8C31.6122 29.9591 31.8789 30.0274 32.1415 29.9899C32.404 29.9524 32.6409 29.8121 32.8 29.6C33.493 28.5875 34.3856 27.7274 35.423 27.0725C36.4605 26.4177 37.6208 25.9818 38.8329 25.7917C40.0449 25.6017 41.283 25.6614 42.4712 25.9673C43.6593 26.2732 44.7723 26.8188 45.7418 27.5706C46.7114 28.3223 47.517 29.2644 48.1092 30.3388C48.7014 31.4133 49.0677 32.5975 49.1855 33.8187C49.3034 35.0399 49.1703 36.2722 48.7944 37.4401C48.4186 38.608 47.808 39.6867 47 40.61C45.2232 42.738 43.927 45.2247 43.2 47.9C43.2 48.04 43.87 48 36.74 48C36.0485 45.2959 34.7718 42.7766 33 40.62C32.171 39.5924 31.5782 38.395 31.2636 37.1127C30.9491 35.8304 30.9206 34.4945 31.18 33.2C31.2063 33.0686 31.2064 32.9334 31.1805 32.8021C31.1545 32.6707 31.1029 32.5457 31.0286 32.4343C30.9543 32.3228 30.8588 32.2271 30.7475 32.1526C30.6362 32.0781 30.5114 32.0262 30.38 32C30.2487 31.9737 30.1135 31.9736 29.9821 31.9995C29.8508 32.0255 29.7258 32.0771 29.6144 32.1514C29.5029 32.2257 29.4072 32.3212 29.3327 32.4325C29.2582 32.5438 29.2063 32.6686 29.18 32.8C28.8594 34.3806 28.8902 36.0124 29.2704 37.5799C29.6506 39.1473 30.3708 40.6119 31.38 41.87C33.1535 43.9595 34.3954 46.4468 35 49.12V51C35 52.326 35.5268 53.5978 36.4645 54.5355C37.4022 55.4732 38.674 56 40 56C41.3261 56 42.5979 55.4732 43.5356 54.5355C44.4733 53.5978 45 52.326 45 51V49.12C45.5973 46.4452 46.8324 43.9544 48.6 41.86C49.8248 40.3263 50.6169 38.4929 50.8942 36.5499C51.1715 34.6069 50.9239 32.6251 50.1771 30.8101C49.4302 28.9951 48.2114 27.4129 46.6469 26.2277C45.0825 25.0426 43.2295 24.2975 41.28 24.07Z"></path>
<path fill="#FB9D9D" d="M39.3947 41.9999L37 37.6021V36.5657H37.7982C38.1175 36.5657 38.3969 36.519 38.6364 36.4256C38.8847 36.3229 39.0887 36.1782 39.2483 35.9915C39.4169 35.8047 39.5322 35.5806 39.5942 35.3192H37V34.2828H39.5809C39.5277 34.04 39.4346 33.8253 39.3016 33.6385C39.1774 33.4518 39.0089 33.3071 38.796 33.2044C38.592 33.0923 38.3437 33.0363 38.051 33.0363H37V31.9999H43V33.0363H40.9113C41.0621 33.2137 41.1863 33.4051 41.2838 33.6105C41.3902 33.8159 41.4612 34.04 41.4967 34.2828H43V35.3192H41.5233C41.4346 36.0101 41.1818 36.5517 40.765 36.9439C40.3481 37.3267 39.8115 37.5881 39.1552 37.7282L41.7627 41.9999H39.3947Z"></path>
</g>
<defs>
<clipPath id="clip0_538_2450">
<rect transform="translate(24 24)" fill="white" height="32" width="32"></rect>
</clipPath>
</defs>
</svg>
