<svg xmlns="http://www.w3.org/2000/svg" fill="none" viewBox="0 0 80 80" height="80" width="80">
<rect fill-opacity="0.12" fill="#EEB45B" rx="16" height="80" width="80"></rect>
<path fill="#EEB45B" d="M55 40C55 39.63 55 39.72 50.87 32.5L50.82 32.45C50.7666 32.3596 50.6951 32.2813 50.61 32.22C50.4367 32.0809 50.2221 32.0035 50 32C28.57 32 29.81 31.91 29.42 32.19C29.03 32.47 29.33 32.19 25.13 39.5C25.0659 39.6355 25.0253 39.7809 25.01 39.93L25 40C25.0119 40.1368 25.0422 40.2713 25.09 40.4C25.21 40.68 39.21 55.61 39.32 55.72C39.4524 55.8417 39.6152 55.9254 39.7912 55.9624C39.9671 55.9993 40.1498 55.9881 40.32 55.93C40.63 55.8 40.19 56.22 48.04 47.81C48.1401 47.7163 48.2199 47.6031 48.2744 47.4772C48.3288 47.3514 48.3569 47.2158 48.3567 47.0787C48.3566 46.9416 48.3282 46.806 48.2735 46.6803C48.2187 46.5546 48.1386 46.4415 48.0383 46.3481C47.938 46.2547 47.8196 46.1828 47.6903 46.1371C47.5611 46.0914 47.4238 46.0727 47.287 46.0823C47.1503 46.0918 47.0169 46.1294 46.8953 46.1926C46.7737 46.2559 46.6663 46.3435 46.58 46.45L42.4 51L45.72 41H51.72L49.3 43.6C49.1143 43.7909 49.0122 44.0478 49.0159 44.3141C49.0197 44.5804 49.129 44.8343 49.32 45.02C49.511 45.2056 49.7678 45.3078 50.0341 45.3041C50.3004 45.3003 50.5543 45.1909 50.74 45C54.94 40.46 55 40.56 55 40ZM30.09 34.85L33.09 39H27.72L30.09 34.85ZM41.94 34H48.06L45 38.28L41.94 34ZM43.06 39H36.94L40 34.72L43.06 39ZM35 38.28L31.94 34H38.06L35 38.28ZM34.28 41L37.6 51L28.3 41H34.28ZM43.61 41L40 51.84L36.39 41H43.61ZM49.91 34.85L52.28 39H46.94L49.91 34.85Z"></path>
<path fill-opacity="0.5" fill="#EEB45B" d="M40 29C39.7348 29 39.4804 28.8946 39.2929 28.7071C39.1054 28.5196 39 28.2652 39 28V25C39 24.7348 39.1054 24.4804 39.2929 24.2929C39.4804 24.1054 39.7348 24 40 24C40.2652 24 40.5196 24.1054 40.7071 24.2929C40.8946 24.4804 41 24.7348 41 25V28C41 28.2652 40.8946 28.5196 40.7071 28.7071C40.5196 28.8946 40.2652 29 40 29Z"></path>
<path fill-opacity="0.5" fill="#EEB45B" d="M33.9999 30C33.4599 30 33.4299 29.85 31.2899 27.71C31.1967 27.6168 31.1227 27.5061 31.0723 27.3843C31.0218 27.2624 30.9958 27.1319 30.9958 27C30.9958 26.8681 31.0218 26.7376 31.0723 26.6158C31.1227 26.4939 31.1967 26.3832 31.2899 26.29C31.3832 26.1968 31.4939 26.1228 31.6157 26.0723C31.7375 26.0219 31.8681 25.9959 31.9999 25.9959C32.1318 25.9959 32.2624 26.0219 32.3842 26.0723C32.506 26.1228 32.6167 26.1968 32.7099 26.29L34.7099 28.29C34.851 28.4299 34.9472 28.6086 34.9862 28.8033C35.0253 28.9981 35.0055 29.2 34.9293 29.3835C34.8531 29.5669 34.7241 29.7235 34.5586 29.8333C34.393 29.9431 34.1986 30.0012 33.9999 30Z"></path>
<path fill-opacity="0.5" fill="#EEB45B" d="M46 30C45.8013 30.0012 45.6069 29.9431 45.4413 29.8333C45.2758 29.7235 45.1468 29.5669 45.0706 29.3835C44.9944 29.2 44.9746 28.9981 45.0137 28.8033C45.0527 28.6086 45.1489 28.4299 45.29 28.29L47.29 26.29C47.4783 26.1017 47.7337 25.9959 48 25.9959C48.2663 25.9959 48.5217 26.1017 48.71 26.29C48.8983 26.4783 49.004 26.7337 49.004 27C49.004 27.2663 48.8983 27.5217 48.71 27.71C46.53 29.89 46.54 30 46 30Z"></path>
</svg>
