<svg xmlns="http://www.w3.org/2000/svg" fill="none" viewBox="0 0 80 80" height="80" width="80">
<rect fill-opacity="0.12" fill="#00A26A" rx="16" height="80" width="80"></rect>
<path fill="#00A26A" d="M53.0001 39C52.7349 39 52.4805 39.1054 52.293 39.2929C52.1054 39.4804 52.0001 39.7348 52.0001 40C52.0065 41.8254 51.5932 43.6279 50.7921 45.2682C49.991 46.9085 48.8236 48.3427 47.3801 49.46C47.2149 49.5882 47.0941 49.7649 47.0346 49.9653C46.975 50.1657 46.9798 50.3798 47.0482 50.5773C47.1167 50.7749 47.2453 50.946 47.416 51.0667C47.5868 51.1873 47.791 51.2514 48.0001 51.25C48.2245 51.2515 48.4428 51.1776 48.6201 51.04C50.3003 49.7328 51.6588 48.0581 52.5914 46.1444C53.524 44.2307 54.0058 42.1288 54.0001 40C54.0001 39.7348 53.8947 39.4804 53.7072 39.2929C53.5197 39.1054 53.2653 39 53.0001 39Z"></path>
<path fill="#00A26A" d="M43.6899 51.42C41.8894 52.0019 39.9768 52.1497 38.1082 51.8514C36.2396 51.5531 34.4681 50.8171 32.9382 49.7036C31.4083 48.59 30.1634 47.1305 29.3052 45.4441C28.447 43.7577 27.9997 41.8922 27.9999 40C27.996 37.1626 29.0068 34.4173 30.8499 32.26L39.2899 40.71C39.4782 40.8983 39.7336 41.0041 39.9999 41.0041C40.2662 41.0041 40.5216 40.8983 40.7099 40.71C40.8982 40.5217 41.004 40.2663 41.004 40C41.004 39.7337 40.8982 39.4783 40.7099 39.29L32.2599 30.85C34.4172 29.0069 37.1625 27.996 39.9999 28C40.2651 28 40.5195 27.8946 40.707 27.7071C40.8946 27.5196 40.9999 27.2652 40.9999 27C40.9999 26.7348 40.8946 26.4804 40.707 26.2929C40.5195 26.1054 40.2651 26 39.9999 26C37.9769 26 35.9779 26.4384 34.1406 27.285C32.3032 28.1317 30.6712 29.3665 29.3569 30.9044C28.0426 32.4423 27.0772 34.2468 26.5271 36.1936C25.9771 38.1405 25.8555 40.1833 26.1708 42.1817C26.486 44.18 27.2306 46.0862 28.3533 47.7692C29.4759 49.4521 30.95 50.8717 32.6739 51.9303C34.3979 52.9889 36.3308 53.6613 38.3395 53.9012C40.3483 54.1411 42.3852 53.9428 44.3099 53.32C44.5527 53.2306 44.7514 53.0505 44.8643 52.8177C44.9771 52.5849 44.9953 52.3174 44.915 52.0714C44.8348 51.8254 44.6623 51.6201 44.4338 51.4987C44.2054 51.3772 43.9387 51.349 43.6899 51.42Z"></path>
<path fill="#75E7B3" d="M55 41H40C39.7348 41 39.4804 40.8946 39.2929 40.7071C39.1054 40.5196 39 40.2652 39 40V25C39 24.7348 39.1054 24.4804 39.2929 24.2929C39.4804 24.1054 39.7348 24 40 24C44.2435 24 48.3131 25.6857 51.3137 28.6863C54.3143 31.6869 56 35.7565 56 40C56 40.2652 55.8946 40.5196 55.7071 40.7071C55.5196 40.8946 55.2652 41 55 41Z"></path>
<path fill="#75E7B3" d="M30 52H25C24.7348 52 24.4804 51.8946 24.2929 51.7071C24.1054 51.5196 24 51.2652 24 51C24 50.7348 24.1054 50.4804 24.2929 50.2929C24.4804 50.1053 24.7348 50 25 50H29.63L36.35 44.24C36.5516 44.0676 36.8134 43.9823 37.0778 44.003C37.3422 44.0236 37.5876 44.1484 37.76 44.35C37.9324 44.5516 38.0176 44.8133 37.997 45.0778C37.9764 45.3422 37.8516 45.5876 37.65 45.76C30.09 52.24 30.53 52 30 52Z"></path>
<path fill="#75E7B3" d="M30 56H25C24.7348 56 24.4804 55.8946 24.2929 55.7071C24.1054 55.5196 24 55.2652 24 55C24 54.7348 24.1054 54.4804 24.2929 54.2929C24.4804 54.1054 24.7348 54 25 54H30C30.2652 54 30.5196 54.1054 30.7071 54.2929C30.8946 54.4804 31 54.7348 31 55C31 55.2652 30.8946 55.5196 30.7071 55.7071C30.5196 55.8946 30.2652 56 30 56Z"></path>
</svg>
