<svg xmlns="http://www.w3.org/2000/svg" fill="none" viewBox="0 0 80 80" height="80" width="80">
<rect fill-opacity="0.12" fill="#BF67E2" rx="16" height="80" width="80"></rect>
<path fill="#E4AAF9" d="M39.62 55.92C35.8791 54.3709 32.6825 51.7457 30.4357 48.3772C28.1889 45.0088 26.9931 41.049 27 37V31C27 30.7348 27.1054 30.4804 27.2929 30.2929C27.4805 30.1053 27.7348 30 28 30H28.79C30.8434 30.001 32.8653 29.495 34.6761 28.5268C36.4869 27.5586 38.0305 26.1582 39.17 24.45C39.2615 24.3139 39.3851 24.2023 39.5298 24.1252C39.6745 24.0481 39.836 24.0078 40 24.0078C40.164 24.0078 40.3255 24.0481 40.4703 24.1252C40.615 24.2023 40.7386 24.3139 40.83 24.45C41.9695 26.1582 43.5132 27.5586 45.324 28.5268C47.1348 29.495 49.1566 30.001 51.21 30H52C52.2652 30 52.5196 30.1053 52.7071 30.2929C52.8947 30.4804 53 30.7348 53 31C53 31.2652 52.8947 31.5196 52.7071 31.7071C52.5196 31.8946 52.2652 32 52 32H51.21C49.0632 32.0043 46.9426 31.5288 45.0031 30.6084C43.0636 29.6879 41.3543 28.3458 40 26.68C38.6673 28.3175 36.9916 29.6425 35.0909 30.5618C33.1903 31.481 31.1111 31.9719 29 32V37C28.9927 40.5825 30.0292 44.0895 31.9826 47.0926C33.9361 50.0956 36.7221 52.4646 40 53.91C43.278 52.4646 46.0639 50.0956 48.0174 47.0926C49.9709 44.0895 51.0073 40.5825 51 37V35C51 34.7348 51.1054 34.4804 51.2929 34.2929C51.4805 34.1053 51.7348 34 52 34C52.2652 34 52.5196 34.1053 52.7071 34.2929C52.8947 34.4804 53 34.7348 53 35V37C53.007 41.049 51.8112 45.0088 49.5644 48.3772C47.3176 51.7457 44.121 54.3709 40.38 55.92C40.1366 56.02 39.8635 56.02 39.62 55.92Z"></path>
<path fill="#BF67E2" d="M44 37V36C44 34.9391 43.5786 33.9217 42.8284 33.1716C42.0783 32.4214 41.0609 32 40 32C38.9391 32 37.9217 32.4214 37.1716 33.1716C36.4214 33.9217 36 34.9391 36 36V37C35.4696 37 34.9609 37.2107 34.5858 37.5858C34.2107 37.9609 34 38.4696 34 39V45C34 45.5304 34.2107 46.0391 34.5858 46.4142C34.9609 46.7893 35.4696 47 36 47H44C44.5304 47 45.0391 46.7893 45.4142 46.4142C45.7893 46.0391 46 45.5304 46 45V39C46 38.4696 45.7893 37.9609 45.4142 37.5858C45.0391 37.2107 44.5304 37 44 37ZM38 36C38 35.4696 38.2107 34.9609 38.5858 34.5858C38.9609 34.2107 39.4696 34 40 34C40.5304 34 41.0391 34.2107 41.4142 34.5858C41.7893 34.9609 42 35.4696 42 36V37H38V36Z"></path>
<path fill="#BF67E2" d="M40 43C40.5523 43 41 42.5523 41 42C41 41.4477 40.5523 41 40 41C39.4477 41 39 41.4477 39 42C39 42.5523 39.4477 43 40 43Z"></path>
</svg>
