<svg xmlns="http://www.w3.org/2000/svg" fill="none" viewBox="0 0 80 80" height="80" width="80">
<rect fill-opacity="0.12" fill="#F8E53A" rx="16" height="80" width="80"></rect>
<g clip-path="url(#clip0_538_2459)">
<path fill="#EFCE14" d="M35.7299 55.4299C35.474 55.3583 35.257 55.188 35.1266 54.9563C34.9963 54.7247 34.9633 54.4508 35.0349 54.1949C35.1065 53.939 35.2769 53.722 35.5085 53.5916C35.7401 53.4613 36.014 53.4283 36.2699 53.4999C38.3072 54.0611 40.4451 54.1537 42.5233 53.771C44.6016 53.3883 46.5662 52.54 48.2699 51.2899C48.3845 51.2034 48.4791 51.0933 48.5474 50.9669C48.6156 50.8406 48.6558 50.701 48.6653 50.5578C48.6748 50.4145 48.6533 50.2709 48.6024 50.1367C48.5514 50.0024 48.4721 49.8808 48.3699 49.7799L45.0499 46.4599C44.9335 46.3446 44.7905 46.2597 44.6336 46.2126C44.4767 46.1655 44.3106 46.1577 44.1499 46.1899L41.1499 46.7899C41.0006 46.8192 40.8599 46.8821 40.7386 46.974C40.6173 47.0658 40.5186 47.1841 40.4499 47.3199L38.9999 50.2699C38.9018 50.4635 38.7433 50.6199 38.5485 50.7155C38.3537 50.8111 38.1331 50.8407 37.9199 50.7999C35.7679 50.3818 33.7899 49.3302 32.2398 47.78C30.6896 46.2299 29.638 44.2519 29.2199 42.0999C29.1727 41.886 29.197 41.6625 29.2892 41.4638C29.3813 41.2651 29.5362 41.1021 29.7299 40.9999L32.6799 39.5199C32.8157 39.4512 32.934 39.3525 33.0258 39.2312C33.1177 39.1099 33.1806 38.9692 33.2099 38.8199L33.8099 35.8199C33.8421 35.6592 33.8343 35.4932 33.7872 35.3362C33.7401 35.1793 33.6552 35.0363 33.5399 34.9199L30.2199 31.6299C30.1191 31.5277 29.9974 31.4484 29.8632 31.3974C29.7289 31.3465 29.5853 31.325 29.442 31.3345C29.2988 31.344 29.1592 31.3842 29.0329 31.4524C28.9066 31.5207 28.7964 31.6153 28.7099 31.7299C27.5455 33.3164 26.7286 35.1306 26.3126 37.0542C25.8966 38.9777 25.8909 40.9673 26.2957 42.8932C26.7005 44.8191 27.5068 46.638 28.662 48.2313C29.8172 49.8246 31.2953 51.1564 32.9999 52.1399C33.2286 52.2718 33.3959 52.4889 33.4652 52.7436C33.5345 52.9984 33.5003 53.2703 33.3699 53.4999C33.3046 53.6145 33.2172 53.715 33.1129 53.7957C33.0085 53.8764 32.8892 53.9356 32.7619 53.97C32.6346 54.0044 32.5017 54.0133 32.3709 53.9961C32.2401 53.9789 32.114 53.936 31.9999 53.8699C30.0528 52.7456 28.3646 51.2236 27.0452 49.4031C25.7259 47.5825 24.805 45.5044 24.3427 43.3041C23.8803 41.1037 23.8869 38.8307 24.362 36.6331C24.8371 34.4355 25.77 32.3628 27.0999 30.5499C27.3571 30.204 27.6858 29.9176 28.0636 29.7102C28.4414 29.5028 28.8595 29.3792 29.2894 29.3479C29.7192 29.3166 30.1508 29.3783 30.5547 29.5287C30.9586 29.6792 31.3253 29.915 31.6299 30.2199L34.9999 33.5399C35.3491 33.8892 35.6067 34.3193 35.7497 34.7921C35.8928 35.2648 35.9169 35.7656 35.8199 36.2499L35.2199 39.2499C35.134 39.6986 34.9446 40.1212 34.6669 40.484C34.3891 40.8468 34.0307 41.1398 33.6199 41.3399L31.3399 42.4499C31.7584 43.9292 32.5489 45.2767 33.636 46.3638C34.7231 47.4509 36.0706 48.2414 37.5499 48.6599L38.6699 46.4299C38.87 46.0192 39.1631 45.6607 39.5258 45.3829C39.8886 45.1052 40.3112 44.9159 40.7599 44.8299L43.7599 44.2299C44.2442 44.1329 44.745 44.157 45.2177 44.3001C45.6905 44.4431 46.1206 44.7007 46.4699 45.0499L49.7899 48.3699C50.0949 48.6745 50.3306 49.0412 50.4811 49.4451C50.6315 49.849 50.6932 50.2806 50.6619 50.7104C50.6306 51.1403 50.507 51.5584 50.2996 51.9362C50.0922 52.314 49.8058 52.6427 49.4599 52.8999C47.5113 54.3317 45.2635 55.3032 42.8854 55.7414C40.5073 56.1796 38.0609 56.0731 35.7299 55.4299V55.4299Z"></path>
<path fill="#FFE347" d="M44.9999 40H39.9999C39.7347 40 39.4803 39.8946 39.2928 39.7071C39.1053 39.5196 38.9999 39.2652 38.9999 39C38.9972 38.2087 39.2335 37.435 39.6778 36.7802C40.122 36.1254 40.7536 35.6199 41.4899 35.33L43.1299 34.67C43.4229 34.5462 43.6645 34.3256 43.8145 34.0452C43.9645 33.7647 44.0138 33.4413 43.9541 33.1289C43.8944 32.8164 43.7294 32.534 43.4866 32.3285C43.2438 32.1231 42.9379 32.0071 42.6199 32H41.9999C41.7347 32 41.4803 32.1054 41.2928 32.2929C41.1053 32.4804 40.9999 32.7348 40.9999 33C40.9999 33.2652 40.8945 33.5196 40.707 33.7071C40.5195 33.8946 40.2651 34 39.9999 34C38.0899 34 38.9999 30 41.9999 30H42.6199C43.4037 30.0063 44.161 30.2841 44.7631 30.7859C45.3651 31.2878 45.7747 31.9827 45.922 32.7525C46.0694 33.5223 45.9455 34.3194 45.5713 35.0081C45.1972 35.6969 44.5959 36.2347 43.8699 36.53C42.1799 37.2 41.6899 37.3 41.2699 38H44.9999C45.2651 38 45.5195 38.1054 45.707 38.2929C45.8945 38.4804 45.9999 38.7348 45.9999 39C45.9999 39.2652 45.8945 39.5196 45.707 39.7071C45.5195 39.8946 45.2651 40 44.9999 40V40Z"></path>
<path fill="#FFE347" d="M54 30.9999C53.7348 30.9999 53.4804 31.1053 53.2929 31.2928C53.1053 31.4803 53 31.7347 53 31.9999V34.9999H50.22L51 31.1999C51.0262 31.0686 51.0264 30.9334 51.0004 30.802C50.9744 30.6706 50.9228 30.5457 50.8485 30.4342C50.7742 30.3228 50.6787 30.2271 50.5674 30.1526C50.4562 30.078 50.3313 30.0262 50.2 29.9999C50.0687 29.9736 49.9335 29.9735 49.8021 29.9995C49.6707 30.0255 49.5457 30.0771 49.4343 30.1514C49.3229 30.2257 49.2272 30.3212 49.1526 30.4324C49.0781 30.5437 49.0262 30.6686 49 30.7999L48 35.7999C47.9699 35.9469 47.9734 36.0987 48.01 36.2442C48.0466 36.3897 48.1155 36.5251 48.2115 36.6403C48.3076 36.7555 48.4283 36.8477 48.5648 36.9099C48.7013 36.9722 48.85 37.0029 49 36.9999H53V38.9999C53 39.2651 53.1053 39.5195 53.2929 39.707C53.4804 39.8945 53.7348 39.9999 54 39.9999C54.2652 39.9999 54.5196 39.8945 54.7071 39.707C54.8946 39.5195 55 39.2651 55 38.9999V31.9999C55 31.7347 54.8946 31.4803 54.7071 31.2928C54.5196 31.1053 54.2652 30.9999 54 30.9999Z"></path>
<path fill="#EFCE14" d="M52.69 49C52.5122 48.9986 52.338 48.9497 52.1853 48.8586C52.0326 48.7674 51.907 48.6372 51.8214 48.4813C51.7358 48.3254 51.6934 48.1495 51.6984 47.9717C51.7034 47.794 51.7558 47.6208 51.85 47.47C52.5774 46.3094 53.1331 45.0497 53.5 43.73C53.5273 43.5952 53.5822 43.4674 53.6611 43.3547C53.7401 43.2421 53.8414 43.1469 53.9588 43.0752C54.0762 43.0035 54.2072 42.9568 54.3434 42.938C54.4797 42.9192 54.6184 42.9287 54.7508 42.9659C54.8833 43.0032 55.0066 43.0674 55.1131 43.1544C55.2196 43.2415 55.307 43.3496 55.3698 43.472C55.4326 43.5944 55.4695 43.7285 55.4781 43.8658C55.4868 44.0031 55.467 44.1407 55.42 44.27C55.0058 45.7745 54.3723 47.2099 53.54 48.53C53.45 48.6741 53.3246 48.7929 53.1759 48.8751C53.0272 48.9573 52.86 49.0003 52.69 49Z"></path>
<path fill="#EFCE14" d="M47.4899 27.9999C47.3147 28.0012 47.1423 27.9563 46.9899 27.8699C44.9333 26.7129 42.622 26.0835 40.2627 26.0382C37.9033 25.9928 35.5695 26.5328 33.4699 27.6099C33.3537 27.6827 33.2238 27.7307 33.0882 27.7511C32.9526 27.7715 32.8143 27.7638 32.6818 27.7285C32.5494 27.6932 32.4256 27.631 32.3182 27.5458C32.2107 27.4606 32.122 27.3543 32.0574 27.2334C31.9928 27.1124 31.9538 26.9795 31.9427 26.8429C31.9317 26.7062 31.9488 26.5687 31.9931 26.439C32.0375 26.3093 32.108 26.19 32.2003 26.0887C32.2927 25.9874 32.4049 25.9061 32.5299 25.8499C34.9291 24.6087 37.5996 23.9844 40.3003 24.0333C43.0011 24.0822 45.6472 24.8027 47.9999 26.1299C48.1934 26.2395 48.3448 26.4104 48.4303 26.6156C48.5158 26.8209 48.5304 27.0487 48.4719 27.2632C48.4134 27.4777 48.2851 27.6666 48.1073 27.8C47.9294 27.9334 47.7122 28.0038 47.4899 27.9999Z"></path>
</g>
<defs>
<clipPath id="clip0_538_2459">
<rect transform="translate(24 24)" fill="white" height="32" width="32"></rect>
</clipPath>
</defs>
</svg>
